# xmcd CD database file
#
# Track frame offsets:
#	150
#	13327
#	26350
#	39257
#	59047
#	70520
#	87105
#	97410
#	114237
#	129607
#	146890
#	163802
#	175667
#	184567
#	193285
#	215520
#
# Disc length: 3075 seconds
#
# Revision: 0
# Processed by: cddbd v1.5.1PL0 Copyright (c) Steve Scherf et al.
# Submitted via: CDex 1.51
#
DISCID=e70c0110
DTITLE=Lucy Reed with Bill Evans - The Singing Reed
DYEAR=1955
DGENRE=Jazz
TTITLE0=Inchworm
TTITLE1=My Love is a Wanderer
TTITLE2=Because We're Kids
TTITLE3=It's All Right With Me
TTITLE4=There's a Boat Dat's Leavin' Soon for New York
TTITLE5=Lazy Afternoon
TTITLE6=Flying Down to Rio
TTITLE7=Little Girl Blue
TTITLE8=Fools Fall in Love
TTITLE9=Out of this World
TTITLE10=You May Not Love Me
TTITLE11=My Time of Day
TTITLE12=No Moon At All
TTITLE13=Tabby the Cat
TTITLE14=Baltimore Oriole
TTITLE15=That's How I Love the Blues
EXTD=YEAR: 1955
EXTT0=
EXTT1=
EXTT2=
EXTT3=
EXTT4=
EXTT5=
EXTT6=
EXTT7=
EXTT8=
EXTT9=
EXTT10=
EXTT11=
EXTT12=
EXTT13=
EXTT14=
EXTT15=
PLAYORDER=
